# xmcd
#
# Track frame offsets:
#      150
#      25702
#      44860
#      67237
#      86530
#      105615
#      126285
#      146367
#      165770
#      184560
#      207052
# 
# Disc length: 3100 seconds
#
# Revision: 4
# Processed by: cddbd v1.4PL0 Copyright (c) Steve Scherf et al.
#
# Submitted via: FreeRIP 1.20
#
DISCID=910c1a0b
DTITLE=Bob Carlisle - Butterfly Kisses - Shades Of Grace
DYEAR=1996
DGENRE=country
TTITLE0=Butterfly Kisses
TTITLE1=You Must Have Been An Angel
TTITLE2=Man Of His Word
TTITLE3=On My Way To Paradise
TTITLE4=One Man Revival
TTITLE5=Mighty Love
TTITLE6=Living Water
TTITLE7=It Is Well With My Soul
TTITLE8=On My Knees
TTITLE9=I'm Gonna Be Ready
TTITLE10=Butterfly Kisses (reprise)
EXTD=
EXTT0=
EXTT1=
EXTT2=
EXTT3=
EXTT4=
EXTT5=
EXTT6=
EXTT7=
EXTT8=
EXTT9=
EXTT10=
PLAYORDER=
